<?xml version="1.0" encoding="UTF-8"?>
<svg version="1.1" xmlns="http://www.w3.org/2000/svg" width="180" height="180">
<path d="M0 0 C59.4 0 118.8 0 180 0 C180 59.4 180 118.8 180 180 C120.6 180 61.2 180 0 180 C0 120.6 0 61.2 0 0 Z " fill="#BB333A" transform="translate(0,0)"/>
<path d="M0 0 C0.68199463 0.00950684 1.36398926 0.01901367 2.06665039 0.02880859 C5.72169297 0.22230283 7.234547 0.60689247 9.84375 3.2421875 C10.3903125 4.11101563 10.936875 4.97984375 11.5 5.875 C12.16 6.865 12.82 7.855 13.5 8.875 C13.125 11.0625 13.125 11.0625 12.5 12.875 C10.85 12.875 9.2 12.875 7.5 12.875 C7.005 11.885 7.005 11.885 6.5 10.875 C7.49 10.875 8.48 10.875 9.5 10.875 C9.5 10.215 9.5 9.555 9.5 8.875 C8.18 9.205 6.86 9.535 5.5 9.875 C5.5 8.555 5.5 7.235 5.5 5.875 C4.84 5.875 4.18 5.875 3.5 5.875 C4.09861742 8.22671131 4.76924352 10.5609378 5.5 12.875 C7.78705831 14.01852916 9.09264762 13.97834439 11.625 13.9375 C13.543125 13.9065625 13.543125 13.9065625 15.5 13.875 C16.48150769 16.92857949 16.89886727 18.931199 15.5 21.875 C13.09985274 23.07208093 10.88985336 24.0015204 8.375 24.875 C-0.85555429 27.72787124 -0.85555429 27.72787124 -7.5 33.875 C-7.74405688 37.74463466 -7.68521165 41.62353966 -7.6875 45.5 C-7.70586914 47.10294922 -7.70586914 47.10294922 -7.72460938 48.73828125 C-7.73588127 54.84764882 -7.18812773 60.01271269 -5.5 65.875 C-5.3125 69.8125 -5.3125 69.8125 -5.5 72.875 C-5.83 73.205 -6.16 73.535 -6.5 73.875 C-3.86 74.205 -1.22 74.535 1.5 74.875 C0.625 80.625 0.625 80.625 -0.5 82.875 C0.12648437 82.86339844 0.75296875 82.85179687 1.3984375 82.83984375 C2.21570312 82.83082031 3.03296875 82.82179688 3.875 82.8125 C4.68710938 82.80089844 5.49921875 82.78929687 6.3359375 82.77734375 C8.5 82.875 8.5 82.875 10.5 83.875 C8.59030455 88.2643 5.50781365 91.28976764 2.27734375 94.75390625 C0.30734668 96.84142227 0.30734668 96.84142227 -0.5 99.875 C0.923125 100.0915625 0.923125 100.0915625 2.375 100.3125 C5.5 100.875 5.5 100.875 7.5 101.875 C8.49 100.39 8.49 100.39 9.5 98.875 C10.16 100.195 10.82 101.515 11.5 102.875 C16.78 102.875 22.06 102.875 27.5 102.875 C27.83 103.535 28.16 104.195 28.5 104.875 C31.14 104.875 33.78 104.875 36.5 104.875 C36.5 105.535 36.5 106.195 36.5 106.875 C39.14 106.875 41.78 106.875 44.5 106.875 C44.83 108.195 45.16 109.515 45.5 110.875 C44.18 110.875 42.86 110.875 41.5 110.875 C41.5 110.215 41.5 109.555 41.5 108.875 C38.035 109.37 38.035 109.37 34.5 109.875 C34.5 108.885 34.5 107.895 34.5 106.875 C31.035 107.37 31.035 107.37 27.5 107.875 C27.17 106.885 26.84 105.895 26.5 104.875 C25.51 105.535 24.52 106.195 23.5 106.875 C22.51 106.875 21.52 106.875 20.5 106.875 C20.5 106.215 20.5 105.555 20.5 104.875 C19.51 105.535 18.52 106.195 17.5 106.875 C16.51 106.875 15.52 106.875 14.5 106.875 C14.83 107.865 15.16 108.855 15.5 109.875 C31.42546219 113.3884582 31.42546219 113.3884582 47.5 111.875 C48.16 111.215 48.82 110.555 49.5 109.875 C51.74729648 108.96070067 54.02310348 108.11558674 56.3125 107.3125 C57.53582031 106.87808594 58.75914063 106.44367188 60.01953125 105.99609375 C64.37494306 104.5931721 68.23862171 103.73497664 72.8125 103.8125 C74.6378125 103.8434375 74.6378125 103.8434375 76.5 103.875 C76.5 104.865 76.5 105.855 76.5 106.875 C77.49 106.875 78.48 106.875 79.5 106.875 C78.74849977 103.59726496 78.74849977 103.59726496 75.5 101.875 C76.16 101.545 76.82 101.215 77.5 100.875 C76.51 99.885 75.52 98.895 74.5 97.875 C74.83 97.215 75.16 96.555 75.5 95.875 C76.9540625 97.1125 76.9540625 97.1125 78.4375 98.375 C80.97022001 100.98039608 80.97022001 100.98039608 82.5 100.875 C81.675 100.111875 80.85 99.34875 80 98.5625 C77.5 95.875 77.5 95.875 77.5 92.875 C80.965 91.885 80.965 91.885 84.5 90.875 C83.88253906 90.65585938 83.26507813 90.43671875 82.62890625 90.2109375 C78.04612274 88.49500943 73.9631344 86.67729674 69.9375 83.875 C59.33076808 76.49316197 48.69508456 74.49709221 35.9375 74.5625 C34.88989502 74.56378906 33.84229004 74.56507812 32.76293945 74.56640625 C25.0850962 74.66057681 17.9276497 75.53082828 10.44921875 77.21875 C7.5 77.875 7.5 77.875 4.5 77.875 C4.5 76.555 4.5 75.235 4.5 73.875 C2.19 73.545 -0.12 73.215 -2.5 72.875 C-2.83 71.555 -3.16 70.235 -3.5 68.875 C1.26307437 67.92238513 5.6666528 67.79166643 10.5 67.875 C10.5 66.885 10.5 65.895 10.5 64.875 C15.75714286 60.875 15.75714286 60.875 18.5 60.875 C18.5 59.225 18.5 57.575 18.5 55.875 C35.55003541 47.72063524 58.07736509 48.93909825 75.71875 54.9765625 C84.02070672 58.51173638 92.33953405 63.5540681 96.5 71.875 C96.46519531 72.50792969 96.43039063 73.14085938 96.39453125 73.79296875 C96.29566926 76.52815041 96.46791604 78.32217192 97.5 80.875 C100.32682961 82.99623164 103.25622581 84.50444237 106.40234375 86.109375 C111.24421301 88.86917942 114.99908133 92.87316266 117.5 97.875 C118.19048724 104.8949536 118.19048724 104.8949536 115.5625 108.625 C101.51263936 118.94734659 82.15421781 117.91972953 65.5 116.875 C64.84 116.545 64.18 116.215 63.5 115.875 C63.5 117.525 63.5 119.175 63.5 120.875 C64.15226562 120.97296875 64.80453125 121.0709375 65.4765625 121.171875 C71.10134689 122.13422749 75.11040547 123.16072771 79.5 126.875 C79.83 127.865 80.16 128.855 80.5 129.875 C43.54 129.875 6.58 129.875 -31.5 129.875 C-32.625 120.875 -32.625 120.875 -32.59765625 117.59375 C-32.59443359 116.89765625 -32.59121094 116.2015625 -32.58789062 115.484375 C-32.57951172 114.78828125 -32.57113281 114.0921875 -32.5625 113.375 C-32.55798828 112.64796875 -32.55347656 111.9209375 -32.54882812 111.171875 C-32.53721193 109.40621319 -32.51928441 107.6405947 -32.5 105.875 C-33.26699219 105.57464844 -34.03398438 105.27429688 -34.82421875 104.96484375 C-37.62068873 103.82584357 -40.04077216 102.63159131 -42.5 100.875 C-42.5 99.885 -42.5 98.895 -42.5 97.875 C-39.16666667 94.875 -39.16666667 94.875 -36.5 94.875 C-37.16 93.92625 -37.82 92.9775 -38.5 92 C-40.5 88.875 -40.5 88.875 -40.5 86.875 C-24.54255319 77.91755319 -24.54255319 77.91755319 -15.5 75.875 C-21.12245759 76.86413606 -25.86460767 78.29904546 -30.87109375 81.0703125 C-32.5 81.875 -32.5 81.875 -34.5 81.875 C-34.5501123 80.97370361 -34.60022461 80.07240723 -34.65185547 79.14379883 C-34.84444456 75.73462252 -35.04273035 72.32586933 -35.24462891 68.91723633 C-35.33017465 67.45414786 -35.4135801 65.99093236 -35.49462891 64.52758789 C-36.19164372 51.98562377 -37.09531744 39.74644389 -41.5 27.875 C-43.65011358 21.76415089 -43.70828427 16.27395562 -43.5 9.875 C-36.88862311 6.2625982 -30.86000544 3.31117306 -23.36328125 2.19921875 C-21.49067626 2.05748328 -21.49067626 2.05748328 -20.5 0.875 C-13.72481381 -0.22765236 -6.84268306 -0.25555215 0 0 Z " fill="#BE343D" transform="translate(61.5,50.125)"/>
<path d="M0 0 C5.60555286 3.58106017 7.58988589 8.97471473 10 15 C10.28875 15.680625 10.5775 16.36125 10.875 17.0625 C11.08833464 20.36918696 9.7558599 22.24926918 8 25 C5.48031198 26.34324832 3.35169769 27.29425588 0.6875 28.1875 C-0.62198826 28.65767234 -1.93059629 29.13030395 -3.23828125 29.60546875 C-3.86814941 29.83024902 -4.49801758 30.0550293 -5.14697266 30.28662109 C-7.86393256 31.33259696 -10.42541677 32.64684695 -13 34 C-13.02929981 37.83331699 -13.04689897 41.66660471 -13.0625 45.5 C-13.07506836 47.11648437 -13.07506836 47.11648437 -13.08789062 48.765625 C-13.10571885 54.61328382 -12.89105963 60.21863671 -12 66 C-5.78685602 65.62721136 -3.38685796 64.087754 1 60 C4 58 4 58 6.1875 58.375 C6.785625 58.58125 7.38375 58.7875 8 59 C6.6581656 63.02550319 4.5772427 63.88285636 1 66 C0.34 66 -0.32 66 -1 66 C-1 66.99 -1 67.98 -1 69 C-5.62 69.33 -10.24 69.66 -15 70 C-14.67 70.99 -14.34 71.98 -14 73 C-10.48809191 74.22969878 -10.48809191 74.22969878 -7 75 C-7 76.32 -7 77.64 -7 79 C-5.906875 78.71125 -4.81375 78.4225 -3.6875 78.125 C16.45473217 73.15742282 38.02416358 71.80845912 56.48046875 82.44921875 C58.70679915 83.81953374 60.88433559 85.24266549 63.0625 86.6875 C67.3889776 89.47587434 72.0430738 90.75061082 77 92 C77 92.33 77 92.66 77 93 C73.37 93.33 69.74 93.66 66 94 C68.16264012 97.98381075 70.71211176 100.88983545 74 104 C72.35 104 70.7 104 69 104 C69 103.34 69 102.68 69 102 C67.37373596 100.61767557 65.7074998 99.28062485 64 98 C64.99 99.175625 64.99 99.175625 66 100.375 C68.42639827 103.55964773 68 104.10604621 68 108 C64.36576791 110.32590854 61.22911669 110.16265833 57 110 C57 109.67 57 109.34 57 109 C60.96 108.01 60.96 108.01 65 107 C65 106.67 65 106.34 65 106 C55.16910878 105.2135287 45.62020023 108.42788772 37 113 C37 113.33 37 113.66 37 114 C25.70711153 116.44170561 15.08271325 114.33613027 4 112 C3.67 110.68 3.34 109.36 3 108 C4.98 107.34 6.96 106.68 9 106 C9 106.66 9 107.32 9 108 C10.98 107.34 12.96 106.68 15 106 C15.33 106.66 15.66 107.32 16 108 C18.31 108 20.62 108 23 108 C23 108.99 23 109.98 23 111 C26.465 110.505 26.465 110.505 30 110 C30 110.66 30 111.32 30 112 C31.32 112 32.64 112 34 112 C33.67 110.68 33.34 109.36 33 108 C30.36 108 27.72 108 25 108 C25 107.34 25 106.68 25 106 C22.36 106.33 19.72 106.66 17 107 C16.67 106.01 16.34 105.02 16 104 C15.154375 104.165 14.30875 104.33 13.4375 104.5 C8.73267229 105.18433858 4.54334808 105.51444936 0 104 C-0.66 103.01 -1.32 102.02 -2 101 C-2.99 101.99 -3.98 102.98 -5 104 C-7.31 103.01 -9.62 102.02 -12 101 C-11.46511282 96.8928306 -9.27954908 94.82167386 -6.5 91.875 C-3.38621216 88.69217817 -3.38621216 88.69217817 -1 85 C-4.63 84.67 -8.26 84.34 -12 84 C-11.34 81.36 -10.68 78.72 -10 76 C-14.29 76 -18.58 76 -23 76 C-23 75.67 -23 75.34 -23 75 C-20.525 74.505 -20.525 74.505 -18 74 C-17.83814049 70.11537167 -17.9188191 67.28882288 -18.98046875 63.51171875 C-20.41587467 57.98886013 -20.40628498 52.49016593 -20.4375 46.8125 C-20.47037109 45.74580078 -20.50324219 44.67910156 -20.53710938 43.58007812 C-20.59045342 35.82579428 -20.59045342 35.82579428 -17.8046875 31.9296875 C-11.14058582 27.34463704 -3.88747978 24.63702411 4 23 C4 20.69 4 18.38 4 16 C2.7625 16.061875 1.525 16.12375 0.25 16.1875 C-2.51081041 16.17281484 -3.93942616 16.02725823 -6.5 14.875 C-8.60705132 12.24118585 -8.29101222 10.27388743 -8 7 C-7.34 7 -6.68 7 -6 7 C-6 8.32 -6 9.64 -6 11 C-4.68 10.67 -3.36 10.34 -2 10 C-2 10.66 -2 11.32 -2 12 C-2.66 12.33 -3.32 12.66 -4 13 C-2.35 13 -0.7 13 1 13 C0.37478129 8.93607836 -1.38974147 6.13652032 -4 3 C-6.77853642 2.32726877 -8.71490221 2.06677616 -11.5 2.0625 C-12.20471436 2.04147217 -12.90942871 2.02044434 -13.63549805 1.9987793 C-24.84134707 1.41385714 -24.84134707 1.41385714 -35 5 C-36.55111836 5.34714194 -38.11649393 5.63330676 -39.6875 5.875 C-44.72543802 6.78964761 -48.50409747 8.59148079 -53 11 C-53.66 11 -54.32 11 -55 11 C-54.88399745 12.68814237 -54.75668975 14.37550887 -54.625 16.0625 C-54.52058594 17.47208984 -54.52058594 17.47208984 -54.4140625 18.91015625 C-53.94364651 22.4205246 -53.0357767 25.61423532 -52 29 C-51.30939434 31.31157442 -50.62189761 33.62407993 -49.9375 35.9375 C-49.59589844 37.08089844 -49.25429688 38.22429687 -48.90234375 39.40234375 C-47.13726975 46.43971672 -46.77517225 53.53060885 -46.4375 60.75 C-46.3950415 61.62237305 -46.35258301 62.49474609 -46.30883789 63.39355469 C-46.00807359 69.93169865 -45.8802709 76.45480943 -46 83 C-45.02160156 82.49339844 -45.02160156 82.49339844 -44.0234375 81.9765625 C-31.60271903 75.63796576 -31.60271903 75.63796576 -24 76 C-26.93982688 77.95988459 -29.14824714 78.74447414 -32.5 79.75 C-38.02031356 81.52294742 -42.82582578 83.90381683 -47.8203125 86.828125 C-50 88 -50 88 -52 88 C-51.34 88.94875 -50.68 89.8975 -50 90.875 C-48 94 -48 94 -48 96 C-51.46153846 99 -51.46153846 99 -54 99 C-54 99.99 -54 100.98 -54 102 C-53.278125 102.268125 -52.55625 102.53625 -51.8125 102.8125 C-48.9206368 104.03350891 -46.51841997 105.11553339 -44 107 C-43.34057617 109.54370117 -43.34057617 109.54370117 -43.29296875 112.54296875 C-43.26396484 113.61611328 -43.23496094 114.68925781 -43.20507812 115.79492188 C-43.19927734 116.91447266 -43.19347656 118.03402344 -43.1875 119.1875 C-43.16236328 120.31865234 -43.13722656 121.44980469 -43.11132812 122.61523438 C-43.05235616 125.4105053 -43.01614967 128.20420675 -43 131 C-44.98 131 -46.96 131 -49 131 C-48.9779248 130.36497559 -48.95584961 129.72995117 -48.93310547 129.07568359 C-48.04889115 116.92265372 -48.04889115 116.92265372 -52.29296875 106.203125 C-54.85618384 104.74256238 -57.14277932 103.71560155 -60 103 C-59.32084333 98.68914241 -58.3222714 96.89359122 -55 94 C-55.66 93.34 -56.32 92.68 -57 92 C-57.4375 89.6875 -57.4375 89.6875 -57 87 C-56.16597656 86.39414063 -55.33195312 85.78828125 -54.47265625 85.1640625 C-52.40228713 83.1725997 -52.01686429 82.12778333 -51.63452148 79.23071289 C-51.6242727 75.69856188 -51.77610218 72.21262118 -52 68.6875 C-52.09595459 66.79741211 -52.09595459 66.79741211 -52.19384766 64.86914062 C-52.72665824 55.68731392 -53.79891036 46.92953901 -56 38 C-56.26167969 36.8965625 -56.52335937 35.793125 -56.79296875 34.65625 C-57.68478862 30.99843044 -58.62159666 27.35711323 -59.6328125 23.73046875 C-60.81549237 19.37454218 -61.52000471 15.50670751 -61 11 C-58.31258075 7.17559568 -55.35253144 6.33240758 -51 5 C-50.2575 4.505 -49.515 4.01 -48.75 3.5 C-45.28481832 1.6099009 -41.97703396 1.08192585 -38.109375 0.4296875 C-36.02273838 0.20665027 -36.02273838 0.20665027 -35 -1 C-33.02490127 -1.2094361 -31.04428318 -1.36803822 -29.0625 -1.5 C-8.86149797 -2.84833863 -8.86149797 -2.84833863 0 0 Z " fill="#1A1C1E" transform="translate(73,49)"/>
<path d="M0 0 C2.78753543 2.49826289 4.98355969 5.13899438 6.65625 8.484375 C6.60404297 9.43376953 6.60404297 9.43376953 6.55078125 10.40234375 C6.45191926 13.13752541 6.62416604 14.93154692 7.65625 17.484375 C10.48307961 19.60560664 13.41247581 21.11381737 16.55859375 22.71875 C21.40046301 25.47855442 25.15533133 29.48253766 27.65625 34.484375 C28.34673724 41.5043286 28.34673724 41.5043286 25.71875 45.234375 C11.66888936 55.55672159 -7.68953219 54.52910453 -24.34375 53.484375 C-25.00375 53.154375 -25.66375 52.824375 -26.34375 52.484375 C-26.34375 54.134375 -26.34375 55.784375 -26.34375 57.484375 C-25.69148438 57.58234375 -25.03921875 57.6803125 -24.3671875 57.78125 C-18.74240311 58.74360249 -14.73334453 59.77010271 -10.34375 63.484375 C-10.01375 64.474375 -9.68375 65.464375 -9.34375 66.484375 C-12.03125 66.734375 -12.03125 66.734375 -15.34375 66.484375 C-16.045 65.88625 -16.74625 65.288125 -17.46875 64.671875 C-21.31600497 61.74461578 -25.10616586 61.21394945 -29.796875 60.29296875 C-30.63734375 60.02613281 -31.4778125 59.75929688 -32.34375 59.484375 C-33.34375 56.484375 -33.34375 56.484375 -32.34375 53.484375 C-33.24818848 53.4985144 -33.24818848 53.4985144 -34.17089844 53.51293945 C-40.35950446 53.56723594 -46.43542379 53.26934604 -52.59375 52.671875 C-53.49891357 52.58566895 -54.40407715 52.49946289 -55.33666992 52.41064453 C-62.82108287 51.64474823 -70.04241098 50.3250487 -77.34375 48.484375 C-75.36375 51.124375 -73.38375 53.764375 -71.34375 56.484375 C-75.98398838 54.16425581 -79.00012796 51.68302925 -81.71875 47.234375 C-82.63301831 43.21159445 -81.99470009 39.52202488 -81.34375 35.484375 C-80.35375 36.144375 -79.36375 36.804375 -78.34375 37.484375 C-78.34375 38.144375 -78.34375 38.804375 -78.34375 39.484375 C-73.06375 39.484375 -67.78375 39.484375 -62.34375 39.484375 C-62.01375 40.144375 -61.68375 40.804375 -61.34375 41.484375 C-58.70375 41.484375 -56.06375 41.484375 -53.34375 41.484375 C-53.34375 42.144375 -53.34375 42.804375 -53.34375 43.484375 C-50.70375 43.484375 -48.06375 43.484375 -45.34375 43.484375 C-44.84875 45.464375 -44.84875 45.464375 -44.34375 47.484375 C-45.66375 47.484375 -46.98375 47.484375 -48.34375 47.484375 C-48.34375 46.824375 -48.34375 46.164375 -48.34375 45.484375 C-51.80875 45.979375 -51.80875 45.979375 -55.34375 46.484375 C-55.34375 45.494375 -55.34375 44.504375 -55.34375 43.484375 C-58.80875 43.979375 -58.80875 43.979375 -62.34375 44.484375 C-62.67375 43.494375 -63.00375 42.504375 -63.34375 41.484375 C-64.33375 42.144375 -65.32375 42.804375 -66.34375 43.484375 C-67.33375 43.484375 -68.32375 43.484375 -69.34375 43.484375 C-69.34375 42.824375 -69.34375 42.164375 -69.34375 41.484375 C-70.33375 42.144375 -71.32375 42.804375 -72.34375 43.484375 C-73.33375 43.484375 -74.32375 43.484375 -75.34375 43.484375 C-75.01375 44.474375 -74.68375 45.464375 -74.34375 46.484375 C-58.41828781 49.9978332 -58.41828781 49.9978332 -42.34375 48.484375 C-41.68375 47.824375 -41.02375 47.164375 -40.34375 46.484375 C-38.09645352 45.57007567 -35.82064652 44.72496174 -33.53125 43.921875 C-32.30792969 43.48746094 -31.08460937 43.05304688 -29.82421875 42.60546875 C-25.46880694 41.2025471 -21.60512829 40.34435164 -17.03125 40.421875 C-15.2059375 40.4528125 -15.2059375 40.4528125 -13.34375 40.484375 C-13.34375 41.474375 -13.34375 42.464375 -13.34375 43.484375 C-12.35375 43.484375 -11.36375 43.484375 -10.34375 43.484375 C-11.09525023 40.20663996 -11.09525023 40.20663996 -14.34375 38.484375 C-13.68375 38.154375 -13.02375 37.824375 -12.34375 37.484375 C-13.33375 36.494375 -14.32375 35.504375 -15.34375 34.484375 C-14.84875 33.494375 -14.84875 33.494375 -14.34375 32.484375 C-13.374375 33.309375 -12.405 34.134375 -11.40625 34.984375 C-8.87352999 37.58977108 -8.87352999 37.58977108 -7.34375 37.484375 C-8.58125 36.3396875 -8.58125 36.3396875 -9.84375 35.171875 C-12.34375 32.484375 -12.34375 32.484375 -12.34375 29.484375 C-10.03375 28.824375 -7.72375 28.164375 -5.34375 27.484375 C-6.26994141 27.15566406 -6.26994141 27.15566406 -7.21484375 26.8203125 C-11.79762726 25.10438443 -15.8806156 23.28667174 -19.90625 20.484375 C-30.51298192 13.10253697 -41.14866544 11.10646721 -53.90625 11.171875 C-54.95385498 11.17316406 -56.00145996 11.17445312 -57.08081055 11.17578125 C-64.7586538 11.26995181 -71.9161003 12.14020328 -79.39453125 13.828125 C-82.34375 14.484375 -82.34375 14.484375 -85.34375 14.484375 C-85.34375 13.164375 -85.34375 11.844375 -85.34375 10.484375 C-87.65375 10.154375 -89.96375 9.824375 -92.34375 9.484375 C-92.67375 8.164375 -93.00375 6.844375 -93.34375 5.484375 C-88.58067563 4.53176013 -84.1770972 4.40104143 -79.34375 4.484375 C-79.34375 3.494375 -79.34375 2.504375 -79.34375 1.484375 C-74.08660714 -2.515625 -74.08660714 -2.515625 -71.34375 -2.515625 C-71.34375 -4.165625 -71.34375 -5.815625 -71.34375 -7.515625 C-50.08267602 -17.68396473 -18.45804157 -14.675656 0 0 Z " fill="#110908" transform="translate(151.34375,113.515625)"/>
<path d="M0 0 C0.68199463 0.00950684 1.36398926 0.01901367 2.06665039 0.02880859 C5.72169297 0.22230283 7.234547 0.60689247 9.84375 3.2421875 C10.3903125 4.11101563 10.936875 4.97984375 11.5 5.875 C12.16 6.865 12.82 7.855 13.5 8.875 C13.125 11.0625 13.125 11.0625 12.5 12.875 C10.85 12.875 9.2 12.875 7.5 12.875 C7.005 11.885 7.005 11.885 6.5 10.875 C7.49 10.875 8.48 10.875 9.5 10.875 C9.5 10.215 9.5 9.555 9.5 8.875 C8.18 9.205 6.86 9.535 5.5 9.875 C5.5 8.555 5.5 7.235 5.5 5.875 C4.84 5.875 4.18 5.875 3.5 5.875 C4.09861742 8.22671131 4.76924352 10.5609378 5.5 12.875 C7.78705831 14.01852916 9.09264762 13.97834439 11.625 13.9375 C13.543125 13.9065625 13.543125 13.9065625 15.5 13.875 C16.48150769 16.92857949 16.89886727 18.931199 15.5 21.875 C13.09985274 23.07208093 10.88985336 24.0015204 8.375 24.875 C-0.85555429 27.72787124 -0.85555429 27.72787124 -7.5 33.875 C-7.74405688 37.74463466 -7.68521165 41.62353966 -7.6875 45.5 C-7.70586914 47.10294922 -7.70586914 47.10294922 -7.72460938 48.73828125 C-7.73588127 54.84764882 -7.18812773 60.01271269 -5.5 65.875 C-5.3125 69.8125 -5.3125 69.8125 -5.5 72.875 C-7.17636011 74.55136011 -9.45073781 74.32404945 -11.75 74.625 C-18.76752893 75.72595364 -24.96458321 78.17620199 -31.5 80.875 C-32.985 81.37 -32.985 81.37 -34.5 81.875 C-34.5501123 80.97370361 -34.60022461 80.07240723 -34.65185547 79.14379883 C-34.84444456 75.73462252 -35.04273035 72.32586933 -35.24462891 68.91723633 C-35.33017465 67.45414786 -35.4135801 65.99093236 -35.49462891 64.52758789 C-36.19164372 51.98562377 -37.09531744 39.74644389 -41.5 27.875 C-43.65011358 21.76415089 -43.70828427 16.27395562 -43.5 9.875 C-36.88862311 6.2625982 -30.86000544 3.31117306 -23.36328125 2.19921875 C-21.49067626 2.05748328 -21.49067626 2.05748328 -20.5 0.875 C-13.72481381 -0.22765236 -6.84268306 -0.25555215 0 0 Z " fill="#EDC3A2" transform="translate(61.5,50.125)"/>
<path d="M0 0 C1.1398233 -0.00151062 1.1398233 -0.00151062 2.30267334 -0.00305176 C15.06412215 0.0083733 27.45316883 0.75765724 40 3.25 C40.73299316 3.39453613 41.46598633 3.53907227 42.22119141 3.68798828 C59.16200297 7.17500739 80.87561575 14.10559391 92 28.25 C93.60586255 31.4617251 93.61351717 34.77570054 93 38.25 C88.28002676 43.37454238 82.68372213 44.45210885 76 45.25 C73.34193125 45.33965104 70.71163318 45.39058576 68.0546875 45.3828125 C66.95533371 45.38424759 66.95533371 45.38424759 65.83377075 45.38571167 C64.2959179 45.38638774 62.7580621 45.38457375 61.22021484 45.38037109 C58.8746092 45.3749991 56.52919365 45.3803435 54.18359375 45.38671875 C52.68229125 45.38605817 51.18098886 45.38477742 49.6796875 45.3828125 C48.98374481 45.38483673 48.28780212 45.38686096 47.57077026 45.38894653 C43.92185281 45.37145926 40.5488202 45.11382933 37 44.25 C37.495 43.26 37.495 43.26 38 42.25 C35.03 42.91 32.06 43.57 29 44.25 C31.65647485 41.59352515 34.27309248 40.92907227 37.8125 39.6875 C39.03582031 39.25308594 40.25914063 38.81867188 41.51953125 38.37109375 C45.87494306 36.9681721 49.73862171 36.10997664 54.3125 36.1875 C56.1378125 36.2184375 56.1378125 36.2184375 58 36.25 C58 37.24 58 38.23 58 39.25 C58.99 39.25 59.98 39.25 61 39.25 C60.24849977 35.97226496 60.24849977 35.97226496 57 34.25 C57.66 33.92 58.32 33.59 59 33.25 C58.01 32.26 57.02 31.27 56 30.25 C56.33 29.59 56.66 28.93 57 28.25 C57.969375 29.075 58.93875 29.9 59.9375 30.75 C62.47022001 33.35539608 62.47022001 33.35539608 64 33.25 C62.7625 32.1053125 62.7625 32.1053125 61.5 30.9375 C59 28.25 59 28.25 59 25.25 C61.31 24.59 63.62 23.93 66 23.25 C65.38253906 23.03085938 64.76507813 22.81171875 64.12890625 22.5859375 C59.54612274 20.87000943 55.4631344 19.05229674 51.4375 16.25 C40.83076808 8.86816197 30.19508456 6.87209221 17.4375 6.9375 C16.38989502 6.93878906 15.34229004 6.94007812 14.26293945 6.94140625 C6.5850962 7.03557681 -0.5723503 7.90582828 -8.05078125 9.59375 C-11 10.25 -11 10.25 -14 10.25 C-14 8.93 -14 7.61 -14 6.25 C-16.31 5.92 -18.62 5.59 -21 5.25 C-21.33 3.93 -21.66 2.61 -22 1.25 C-14.70822417 -0.14516723 -7.39341485 0.00675035 0 0 Z " fill="#BC9255" transform="translate(80,117.75)"/>
<path d="M0 0 C5.60555286 3.58106017 7.58988589 8.97471473 10 15 C10.28875 15.680625 10.5775 16.36125 10.875 17.0625 C11.08833464 20.36918696 9.7558599 22.24926918 8 25 C5.48031198 26.34324832 3.35169769 27.29425588 0.6875 28.1875 C-0.62198826 28.65767234 -1.93059629 29.13030395 -3.23828125 29.60546875 C-3.86814941 29.83024902 -4.49801758 30.0550293 -5.14697266 30.28662109 C-7.86393256 31.33259696 -10.42541677 32.64684695 -13 34 C-13.02929981 37.83331699 -13.04689897 41.66660471 -13.0625 45.5 C-13.07506836 47.11648437 -13.07506836 47.11648437 -13.08789062 48.765625 C-13.10571885 54.61328382 -12.89105963 60.21863671 -12 66 C-5.78685602 65.62721136 -3.38685796 64.087754 1 60 C4 58 4 58 6.1875 58.375 C6.785625 58.58125 7.38375 58.7875 8 59 C6.6581656 63.02550319 4.5772427 63.88285636 1 66 C0.34 66 -0.32 66 -1 66 C-1 66.99 -1 67.98 -1 69 C-5.62 69.33 -10.24 69.66 -15 70 C-14.34 71.65 -13.68 73.3 -13 75 C-14.32 75 -15.64 75 -17 75 C-19.36400343 65.43141468 -20.36267765 56.16388564 -20.5 46.3125 C-20.53029297 45.27351563 -20.56058594 44.23453125 -20.59179688 43.1640625 C-20.59659402 35.824423 -20.59659402 35.824423 -17.80078125 31.9609375 C-11.17418855 27.3213984 -3.8826895 24.6360299 4 23 C4 20.69 4 18.38 4 16 C2.7625 16.061875 1.525 16.12375 0.25 16.1875 C-2.51081041 16.17281484 -3.93942616 16.02725823 -6.5 14.875 C-8.60705132 12.24118585 -8.29101222 10.27388743 -8 7 C-7.34 7 -6.68 7 -6 7 C-6 8.32 -6 9.64 -6 11 C-4.68 10.67 -3.36 10.34 -2 10 C-2 10.66 -2 11.32 -2 12 C-2.66 12.33 -3.32 12.66 -4 13 C-2.35 13 -0.7 13 1 13 C0.37478129 8.93607836 -1.38974147 6.13652032 -4 3 C-6.77853642 2.32726877 -8.71490221 2.06677616 -11.5 2.0625 C-12.20471436 2.04147217 -12.90942871 2.02044434 -13.63549805 1.9987793 C-24.84134707 1.41385714 -24.84134707 1.41385714 -35 5 C-36.55111836 5.34714194 -38.11649393 5.63330676 -39.6875 5.875 C-44.72543802 6.78964761 -48.50409747 8.59148079 -53 11 C-53.66 11 -54.32 11 -55 11 C-54.88399745 12.68814237 -54.75668975 14.37550887 -54.625 16.0625 C-54.52058594 17.47208984 -54.52058594 17.47208984 -54.4140625 18.91015625 C-53.94364651 22.4205246 -53.0357767 25.61423532 -52 29 C-51.30939434 31.31157442 -50.62189761 33.62407993 -49.9375 35.9375 C-49.59589844 37.08089844 -49.25429688 38.22429687 -48.90234375 39.40234375 C-47.13726975 46.43971672 -46.77517225 53.53060885 -46.4375 60.75 C-46.3950415 61.62237305 -46.35258301 62.49474609 -46.30883789 63.39355469 C-46.00807359 69.93169865 -45.8802709 76.45480943 -46 83 C-45.02160156 82.49339844 -45.02160156 82.49339844 -44.0234375 81.9765625 C-31.60271903 75.63796576 -31.60271903 75.63796576 -24 76 C-26.93982688 77.95988459 -29.14824714 78.74447414 -32.5 79.75 C-38.02031356 81.52294742 -42.82582578 83.90381683 -47.8203125 86.828125 C-50 88 -50 88 -52 88 C-51.34 88.94875 -50.68 89.8975 -50 90.875 C-48 94 -48 94 -48 96 C-51.46153846 99 -51.46153846 99 -54 99 C-54 99.99 -54 100.98 -54 102 C-53.278125 102.268125 -52.55625 102.53625 -51.8125 102.8125 C-48.9206368 104.03350891 -46.51841997 105.11553339 -44 107 C-43.34057617 109.54370117 -43.34057617 109.54370117 -43.29296875 112.54296875 C-43.26396484 113.61611328 -43.23496094 114.68925781 -43.20507812 115.79492188 C-43.19927734 116.91447266 -43.19347656 118.03402344 -43.1875 119.1875 C-43.16236328 120.31865234 -43.13722656 121.44980469 -43.11132812 122.61523438 C-43.05235616 125.4105053 -43.01614967 128.20420675 -43 131 C-44.98 131 -46.96 131 -49 131 C-48.9779248 130.36497559 -48.95584961 129.72995117 -48.93310547 129.07568359 C-48.04889115 116.92265372 -48.04889115 116.92265372 -52.29296875 106.203125 C-54.85618384 104.74256238 -57.14277932 103.71560155 -60 103 C-59.32084333 98.68914241 -58.3222714 96.89359122 -55 94 C-55.66 93.34 -56.32 92.68 -57 92 C-57.4375 89.6875 -57.4375 89.6875 -57 87 C-56.16597656 86.39414063 -55.33195312 85.78828125 -54.47265625 85.1640625 C-52.40228713 83.1725997 -52.01686429 82.12778333 -51.63452148 79.23071289 C-51.6242727 75.69856188 -51.77610218 72.21262118 -52 68.6875 C-52.09595459 66.79741211 -52.09595459 66.79741211 -52.19384766 64.86914062 C-52.72665824 55.68731392 -53.79891036 46.92953901 -56 38 C-56.26167969 36.8965625 -56.52335937 35.793125 -56.79296875 34.65625 C-57.68478862 30.99843044 -58.62159666 27.35711323 -59.6328125 23.73046875 C-60.81549237 19.37454218 -61.52000471 15.50670751 -61 11 C-58.31258075 7.17559568 -55.35253144 6.33240758 -51 5 C-50.2575 4.505 -49.515 4.01 -48.75 3.5 C-45.28481832 1.6099009 -41.97703396 1.08192585 -38.109375 0.4296875 C-36.02273838 0.20665027 -36.02273838 0.20665027 -35 -1 C-33.02490127 -1.2094361 -31.04428318 -1.36803822 -29.0625 -1.5 C-8.86149797 -2.84833863 -8.86149797 -2.84833863 0 0 Z " fill="#0E0606" transform="translate(73,49)"/>
<path d="M0 0 C6.75 0.75 6.75 0.75 9 3 C9.55941326 4.60551606 10.05224024 6.23483653 10.5 7.875 C11.38929261 11.11318505 12.26022236 14.1090913 14 17 C16.05000871 17.80528889 16.05000871 17.80528889 18 18 C16.35 16.02 14.7 14.04 13 12 C15.88833113 10.55583443 17.50779587 11.51046511 20.60546875 12.33203125 C28.47203521 14.23608928 36.27124927 14.99615373 44.3125 15.6875 C45.74681945 15.81753847 47.1810651 15.94839368 48.61523438 16.08007812 C52.07602693 16.39609716 55.53767325 16.70119777 59 17 C59 18.65 59 20.3 59 22 C59.97582031 22.24234375 60.95164062 22.4846875 61.95703125 22.734375 C63.86548828 23.23710937 63.86548828 23.23710937 65.8125 23.75 C67.07707031 24.07484375 68.34164062 24.3996875 69.64453125 24.734375 C73 26 73 26 76 30 C48.61 30 21.22 30 -7 30 C-7 12.88172043 -7 12.88172043 -3 6 C-2.4225 4.824375 -1.845 3.64875 -1.25 2.4375 C-0.8375 1.633125 -0.425 0.82875 0 0 Z " fill="#9C1921" transform="translate(60,150)"/>
<path d="M0 0 C5.94 0 11.88 0 18 0 C16.21595648 3.56808704 14.82257147 5.39322313 12.125 8.1875 C8.7974997 11.85736044 6.65133825 15.1685384 4.87109375 19.7734375 C4 22 4 22 2.91015625 24.0390625 C-0.81337799 31.11510266 -0.716893 38.14378083 -1 46 C-8.59 46 -16.18 46 -24 46 C-24 38.74 -24 31.48 -24 24 C-23.01 24 -22.02 24 -21 24 C-21 24.99 -21 25.98 -21 27 C-18.04475114 24.82702289 -15.82997214 22.78201556 -13.5625 19.875 C-8.61766545 13.87335385 -0.93072057 8.46536028 6 5 C6.33 4.01 6.66 3.02 7 2 C4.69 2 2.38 2 0 2 C0 1.34 0 0.68 0 0 Z " fill="#C0343E" transform="translate(54,134)"/>
<path d="M0 0 C0.33 0.66 0.66 1.32 1 2 C2.155 2.165 3.31 2.33 4.5 2.5 C5.655 2.665 6.81 2.83 8 3 C8.33 3.66 8.66 4.32 9 5 C8.175 5.61875 7.35 6.2375 6.5 6.875 C5.2625 7.926875 5.2625 7.926875 4 9 C4 9.66 4 10.32 4 11 C7.40984582 10.61030333 8.83128932 10.15140702 11.4375 7.8125 C12.7059375 6.9153125 12.7059375 6.9153125 14 6 C16.9375 6.625 16.9375 6.625 20 8 C23.91715205 9.47306255 23.91715205 9.47306255 28 10 C28.03738281 10.72445312 28.07476562 11.44890625 28.11328125 12.1953125 C28.50468776 17.95129058 29.30792085 21.84993554 32 27 C32.25 30.8125 32.25 30.8125 32 34 C30.32363989 35.67636011 28.04926219 35.44904945 25.75 35.75 C18.73247107 36.85095364 12.53541679 39.30120199 6 42 C4.515 42.495 4.515 42.495 3 43 C2.94465088 42.08822998 2.88930176 41.17645996 2.83227539 40.23706055 C2.62296629 36.80208264 2.41217804 33.36720174 2.20043945 29.93237305 C2.10969212 28.45552043 2.01950718 26.97863313 1.92993164 25.50170898 C1.41318761 16.98842319 0.84621462 8.48834126 0 0 Z " fill="#EBBE9C" transform="translate(24,89)"/>
<path d="M0 0 C2.82602714 2.37821985 4.9469314 4.50073046 6.3125 8 C6.5 11.8125 6.5 11.8125 6.3125 15 C5.68085938 14.55269531 5.04921875 14.10539062 4.3984375 13.64453125 C-11.5721269 2.85174349 -29.03646134 -0.23072955 -47.9375 -0.3125 C-49.55253418 -0.32083862 -49.55253418 -0.32083862 -51.20019531 -0.3293457 C-58.52841243 -0.26373494 -65.49901691 0.59148946 -72.6875 2 C-66.70092716 -5.48321605 -56.79792202 -8.33268804 -47.59765625 -9.72265625 C-31.61268436 -11.24605626 -13.46144606 -9.5835616 0 0 Z " fill="#DDB76C" transform="translate(145.6875,114)"/>
<path d="M0 0 C1.485 0.99 1.485 0.99 3 2 C3 2.66 3 3.32 3 4 C8.28 4 13.56 4 19 4 C19.33 4.66 19.66 5.32 20 6 C22.64 6 25.28 6 28 6 C28 6.66 28 7.32 28 8 C30.64 8 33.28 8 36 8 C36.495 9.98 36.495 9.98 37 12 C35.68 12 34.36 12 33 12 C33 11.34 33 10.68 33 10 C30.69 10.33 28.38 10.66 26 11 C26 10.01 26 9.02 26 8 C23.69 8.33 21.38 8.66 19 9 C18.67 8.01 18.34 7.02 18 6 C17.01 6.66 16.02 7.32 15 8 C14.01 8 13.02 8 12 8 C12 7.34 12 6.68 12 6 C11.01 6.66 10.02 7.32 9 8 C8.01 8 7.02 8 6 8 C6.33 8.99 6.66 9.98 7 11 C20.08123831 13.7574003 31.97614381 16.00954247 44.8125 10.875 C49.52314117 9.58188282 54.14527586 9.84451061 59 10 C59 10.33 59 10.66 59 11 C55.7 11.33 52.4 11.66 49 12 C52.49109439 13.16369813 55.64103992 13.16208867 59.2734375 13.16796875 C59.99302643 13.17129715 60.71261536 13.17462555 61.45401001 13.17805481 C62.9821916 13.18311898 64.51038425 13.18546329 66.03857422 13.18530273 C68.33190316 13.18745947 70.62472685 13.20553618 72.91796875 13.22460938 C81.82548919 13.25759482 90.22799177 12.69951641 99 11 C98.67 12.32 98.34 13.64 98 15 C88.45283861 18.0469664 79.00949704 18.15971901 69.0625 18.125 C67.3599707 18.13080078 67.3599707 18.13080078 65.62304688 18.13671875 C64.00172852 18.13478516 64.00172852 18.13478516 62.34765625 18.1328125 C60.87824585 18.13112061 60.87824585 18.13112061 59.37915039 18.12939453 C57 18 57 18 55 17 C55 18.65 55 20.3 55 22 C55.97839844 22.14695313 55.97839844 22.14695313 56.9765625 22.296875 C62.60134689 23.25922749 66.61040547 24.28572771 71 28 C71.495 29.485 71.495 29.485 72 31 C69.3125 31.25 69.3125 31.25 66 31 C65.29875 30.401875 64.5975 29.80375 63.875 29.1875 C60.02774503 26.26024078 56.23758414 25.72957445 51.546875 24.80859375 C50.70640625 24.54175781 49.8659375 24.27492187 49 24 C48 21 48 21 49 18 C48.39704102 18.00942627 47.79408203 18.01885254 47.17285156 18.02856445 C40.98424554 18.08286094 34.90832621 17.78497104 28.75 17.1875 C27.84483643 17.10129395 26.93967285 17.01508789 26.00708008 16.92626953 C18.52266713 16.16037323 11.30133902 14.8406737 4 13 C5.98 15.64 7.96 18.28 10 21 C5.35976162 18.67988081 2.34362204 16.19865425 -0.375 11.75 C-1.28926831 7.72721945 -0.65095009 4.03764988 0 0 Z " fill="#1D0F0C" transform="translate(70,149)"/>
<path d="M0 0 C0.76237976 -0.00100708 1.52475952 -0.00201416 2.3102417 -0.00305176 C15.09054263 0.00836012 27.49704926 0.75395859 40.0625 3.25 C40.79549316 3.39453613 41.52848633 3.53907227 42.28369141 3.68798828 C59.22450297 7.17500739 80.93811575 14.10559391 92.0625 28.25 C93.6668491 31.4586982 93.68543483 34.77936311 93.0625 38.25 C90.75 40.8125 90.75 40.8125 88.0625 42.25 C86.5775 41.755 86.5775 41.755 85.0625 41.25 C86.0525 40.59 87.0425 39.93 88.0625 39.25 C88.98726157 35.80888043 88.83557527 32.71316827 88.0625 29.25 C81.73221085 19.57872491 66.01356526 14.31382904 55.5 10.75 C54.75057129 10.49468506 54.00114258 10.23937012 53.22900391 9.97631836 C49.04724226 8.63711978 45.50754274 7.96911262 41.0625 8.25 C40.5675 7.26 40.5675 7.26 40.0625 6.25 C37.4475488 5.58423966 34.93006608 5.06840312 32.2734375 4.63671875 C31.4715097 4.5054509 30.66958191 4.37418304 29.84335327 4.23893738 C20.46244587 2.83584989 11.14838446 2.91983302 1.6875 3.0625 C-0.07550911 3.07760872 -1.83853107 3.09128594 -3.6015625 3.10351562 C-6.79753429 3.12770712 -9.99318903 3.15955681 -13.18896484 3.20239258 C-15.77165036 3.23519339 -18.3546062 3.25 -20.9375 3.25 C-20.9375 2.59 -20.9375 1.93 -20.9375 1.25 C-14.08602541 -0.3762984 -7.00239964 0.00635715 0 0 Z " fill="#E3BC6C" transform="translate(79.9375,117.75)"/>
<path d="M0 0 C5.60555286 3.58106017 7.58988589 8.97471473 10 15 C10.28875 15.680625 10.5775 16.36125 10.875 17.0625 C11.10147929 20.57292903 10.06076238 22.1738116 8 25 C4.32529354 26.98336806 0.23754031 29 -4 29 C-4 27.68 -4 26.36 -4 25 C-1.36 24.34 1.28 23.68 4 23 C4 20.69 4 18.38 4 16 C2.7625 16.061875 1.525 16.12375 0.25 16.1875 C-2.51081041 16.17281484 -3.93942616 16.02725823 -6.5 14.875 C-8.60705132 12.24118585 -8.29101222 10.27388743 -8 7 C-7.34 7 -6.68 7 -6 7 C-6 8.32 -6 9.64 -6 11 C-4.68 10.67 -3.36 10.34 -2 10 C-2 10.66 -2 11.32 -2 12 C-2.66 12.33 -3.32 12.66 -4 13 C-2.35 13 -0.7 13 1 13 C0.37426647 8.93273209 -1.37733839 6.1320389 -4 3 C-6.83220719 2.36236647 -8.85603876 2.11481016 -11.6875 2.125 C-12.40212402 2.1036499 -13.11674805 2.0822998 -13.85302734 2.06030273 C-17.61078205 1.96177364 -21.36694452 2.00468376 -25.125 2.0625 C-28.88246333 2.00189575 -31.54410696 1.41780227 -35 0 C-35 -0.33 -35 -0.66 -35 -1 C-34.15695313 -1.06058594 -33.31390625 -1.12117188 -32.4453125 -1.18359375 C-31.34960938 -1.26738281 -30.25390625 -1.35117187 -29.125 -1.4375 C-28.03445312 -1.51871094 -26.94390625 -1.59992187 -25.8203125 -1.68359375 C-16.40653873 -2.73970964 -9.53568884 -3.06504284 0 0 Z " fill="#130908" transform="translate(73,49)"/>
<path d="M0 0 C0.9744104 0.17390259 0.9744104 0.17390259 1.96850586 0.35131836 C4.95764765 0.88303431 7.94755983 1.41029273 10.9375 1.9375 C11.95908203 2.11990234 12.98066406 2.30230469 14.03320312 2.49023438 C20.01370843 3.54112189 25.95714216 4.4013853 32 5 C32 6.65 32 8.3 32 10 C22.57765837 10.76397365 15.57232349 8.8713719 7 5 C11.84325117 9.84325117 20.5558777 10.97755053 27 12 C27 12.33 27 12.66 27 13 C17.62689805 15.5856833 17.62689805 15.5856833 13 15 C10.79524225 13.29042848 9.10754445 11.77220213 7.25 9.75 C6.52876953 9.01330078 6.52876953 9.01330078 5.79296875 8.26171875 C3.30664533 5.66458425 1.51104778 3.24242055 0 0 Z " fill="#C1343E" transform="translate(73,161)"/>
<path d="M0 0 C0.66 0.433125 1.32 0.86625 2 1.3125 C-0.35277269 4.03676311 -2.62496331 5.1266763 -6 6.3125 C-6 6.9725 -6 7.6325 -6 8.3125 C-5.071875 8.580625 -4.14375 8.84875 -3.1875 9.125 C-0.23759634 10.22398371 1.05615186 10.93668561 3 13.3125 C1.24609375 14.4375 1.24609375 14.4375 -1 15.3125 C-2.96484375 14.5625 -2.96484375 14.5625 -4.9375 13.3125 C-8.15186808 11.46409528 -8.15186808 11.46409528 -11.8125 11.875 C-14.02464169 13.19309213 -14.02464169 13.19309213 -15.5 15 C-15.995 15.433125 -16.49 15.86625 -17 16.3125 C-19.6875 16 -19.6875 16 -22 15.3125 C-20.70700306 12.42812221 -19.34058637 10.44030579 -17 8.3125 C-19.31 7.6525 -21.62 6.9925 -24 6.3125 C-24 5.3225 -24 4.3325 -24 3.3125 C-20.73365283 2.22371761 -18.9750889 2.47200231 -15.75 3.5625 C-12.83647544 4.31004906 -11.55788142 4.57948611 -8.8125 3.265625 C-7.462379 2.31440339 -6.12319835 1.34741317 -4.796875 0.36328125 C-3 -0.6875 -3 -0.6875 0 0 Z " fill="#0F0D0B" transform="translate(49,84.6875)"/>
<path d="M0 0 C-0.1875 1.796875 -0.1875 1.796875 -1 4 C-3.1875 5.640625 -3.1875 5.640625 -6 7.25 C-13.87251079 12.02462667 -20.36258492 17.72591602 -26 25 C-26.66 24.67 -27.32 24.34 -28 24 C-27.34 23.01 -26.68 22.02 -26 21 C-25.773125 20.0925 -25.54625 19.185 -25.3125 18.25 C-22.94548431 12.3888183 -18.01763236 8.65822976 -13 5 C-13.50450684 5.24758057 -14.00901367 5.49516113 -14.52880859 5.75024414 C-16.80696246 6.86255631 -19.0908114 7.96263748 -21.375 9.0625 C-22.1690625 9.45244141 -22.963125 9.84238281 -23.78125 10.24414062 C-24.92207031 10.79038086 -24.92207031 10.79038086 -26.0859375 11.34765625 C-27.1385376 11.85824585 -27.1385376 11.85824585 -28.21240234 12.37915039 C-28.80230957 12.58403076 -29.3922168 12.78891113 -30 13 C-30.66 12.67 -31.32 12.34 -32 12 C-22.5905084 5.81904728 -11.47354363 -0.25496764 0 0 Z " fill="#791A1E" transform="translate(61,136)"/>
<path d="M0 0 C0.495 0.99 0.495 0.99 1 2 C0.44054687 1.82984375 -0.11890625 1.6596875 -0.6953125 1.484375 C-2.43352889 0.9589977 -4.17329631 0.43874115 -5.9140625 -0.078125 C-7.99623754 -0.70014185 -10.07434992 -1.33590097 -12.1484375 -1.984375 C-28.78801723 -7.02667189 -45.72916663 -8.64547252 -63 -10 C-63 -10.33 -63 -10.66 -63 -11 C-42.9114706 -14.97950266 -16.91727739 -11.70167408 0 0 Z " fill="#CB1C2F" transform="translate(146,126)"/>
<path d="M0 0 C1.485 0.99 1.485 0.99 3 2 C3 2.66 3 3.32 3 4 C8.28 4 13.56 4 19 4 C19.33 4.66 19.66 5.32 20 6 C22.64 6 25.28 6 28 6 C28 6.66 28 7.32 28 8 C30.64 8 33.28 8 36 8 C36.495 9.98 36.495 9.98 37 12 C35.68 12 34.36 12 33 12 C33 11.34 33 10.68 33 10 C30.69 10.33 28.38 10.66 26 11 C26 10.01 26 9.02 26 8 C23.69 8.33 21.38 8.66 19 9 C18.67 8.01 18.34 7.02 18 6 C17.01 6.66 16.02 7.32 15 8 C14.01 8 13.02 8 12 8 C12 7.34 12 6.68 12 6 C11.01 6.66 10.02 7.32 9 8 C8.01 8 7.02 8 6 8 C4.41815522 10.02485989 4.41815522 10.02485989 4 13 C5.67644756 15.94466926 7.76810274 18.45916781 10 21 C5.43828287 18.87443393 2.27340024 16.08374584 -0.375 11.75 C-1.28926831 7.72721945 -0.65095009 4.03764988 0 0 Z " fill="#0B0707" transform="translate(70,149)"/>
<path d="M0 0 C7.73846045 2.04209373 13.86063056 5.1738935 19 11.4375 C20.28410696 14.72802408 20.20580416 17.50132928 20 21 C19.28714844 20.52949219 18.57429688 20.05898437 17.83984375 19.57421875 C11.6633035 15.45194525 11.6633035 15.45194525 4.875 12.5625 C2 11 2 11 1.390625 9.15234375 C1.125 7 1.125 7 1.0703125 4.9375 C1.08306834 2.77984775 1.08306834 2.77984775 0 0 Z " fill="#CB9A56" transform="translate(132,108)"/>
<path d="M0 0 C0 0.66 0 1.32 0 2 C1.98 1.34 3.96 0.68 6 0 C6.33 0.66 6.66 1.32 7 2 C9.31 2 11.62 2 14 2 C14 2.99 14 3.98 14 5 C17.465 4.505 17.465 4.505 21 4 C20.67 4.99 20.34 5.98 20 7 C20.99 7.33 21.98 7.66 23 8 C21.38343043 9.61656957 19.67720501 9.20994566 17.4375 9.25 C9.79472439 9.20966873 2.44755025 7.56987258 -5 6 C-5.33 4.68 -5.66 3.36 -6 2 C-2.25 0 -2.25 0 0 0 Z " fill="#C78F61" transform="translate(82,155)"/>
<path d="M0 0 C4.75917803 1.47945863 9.71117019 1.74486037 14.65307617 2.22338867 C24.31635208 3.26445201 33.25657928 4.88707888 42.52807617 7.78588867 C44.85858148 8.46284498 47.19316057 9.12423123 49.52807617 9.78588867 C49.52807617 10.44588867 49.52807617 11.10588867 49.52807617 11.78588867 C45.25071537 10.85264632 40.98887524 9.90192064 36.74291992 8.83276367 C18.09274775 4.15476712 -0.28624874 3.33019453 -19.47192383 2.78588867 C-19.14192383 1.79588867 -18.81192383 0.80588867 -18.47192383 -0.21411133 C-16.66598102 -0.6388593 -14.85149232 -1.02730883 -13.03442383 -1.40161133 C-12.02508789 -1.62204102 -11.01575195 -1.8424707 -9.97583008 -2.06958008 C-6.03381827 -2.23218257 -3.64199171 -1.34202852 0 0 Z " fill="#412821" transform="translate(91.471923828125,115.214111328125)"/>
<path d="M0 0 C0.75972107 -0.00167175 1.51944214 -0.00334351 2.30218506 -0.00506592 C17.88359128 -0.00712037 32.95420785 1.27413365 48.0625 5.25 C44.65505557 6.1851189 41.97437064 6.25012577 38.4375 5.9375 C36.99503906 5.81955078 36.99503906 5.81955078 35.5234375 5.69921875 C32.0625 5.25 32.0625 5.25 30.13330078 4.76464844 C20.95265161 2.49816938 11.57465615 3.03427803 2.1875 3.125 C0.38802582 3.13505112 -1.4114538 3.14417319 -3.2109375 3.15234375 C-6.49470022 3.16858657 -9.77833121 3.18993165 -13.06201172 3.21826172 C-15.68710777 3.23975992 -18.31231592 3.25 -20.9375 3.25 C-20.9375 2.59 -20.9375 1.93 -20.9375 1.25 C-14.08548433 -0.37642684 -7.00277108 0.00804809 0 0 Z " fill="#EFE29D" transform="translate(79.9375,117.75)"/>
<path d="M0 0 C20.38061353 -0.68603826 45.09133257 -0.83943195 61.875 12.875 C62.57625 13.57625 63.2775 14.2775 64 15 C64.66 14.34 65.32 13.68 66 13 C66 14.32 66 15.64 66 17 C63.5332355 17.88336837 62.36140628 18.1312406 59.859375 17.22265625 C59.16328125 16.83980469 58.4671875 16.45695312 57.75 16.0625 C57.04359375 15.68222656 56.3371875 15.30195313 55.609375 14.91015625 C55.07828125 14.60980469 54.5471875 14.30945313 54 14 C56 13 56 13 57 13 C41.95703545 4.45286105 26.50354143 2.20127735 9.4375 1.4375 C8.06754883 1.37272461 8.06754883 1.37272461 6.66992188 1.30664062 C4.44672009 1.20188243 2.22343293 1.09970983 0 1 C0 0.67 0 0.34 0 0 Z " fill="#2C1613" transform="translate(87,113)"/>
<path d="M0 0 C4.75 0.75 4.75 0.75 7 3 C7.87911904 9.11504862 6.56027661 15.1071696 5 21 C4.34 21 3.68 21 3 21 C0.95938459 13.82140651 -0.37369729 7.47394574 0 0 Z " fill="#C2313C" transform="translate(62,150)"/>
<path d="M0 0 C1.40912096 2.81824192 1.11183553 5.17251282 1.09765625 8.3203125 C1.09443359 9.57714844 1.09121094 10.83398438 1.08789062 12.12890625 C1.07951172 13.44761719 1.07113281 14.76632813 1.0625 16.125 C1.05748489 17.46484211 1.05292201 18.804686 1.04882812 20.14453125 C1.03701086 23.42973206 1.02053617 26.71484397 1 30 C-1 28 -1 28 -1.1328125 25.1015625 C-1.13023438 23.95429687 -1.12765625 22.80703125 -1.125 21.625 C-1.22957372 16.89546238 -1.22957372 16.89546238 -3.83984375 13.25390625 C-5.88387196 12.27320379 -7.79967883 11.53629696 -10 11 C-10 10.34 -10 9.68 -10 9 C-8.04969533 7.66653588 -6.00995631 6.56108684 -3.9453125 5.4140625 C-1.75083004 3.81887645 -1.00541732 2.48708495 0 0 Z " fill="#D39B6D" transform="translate(53,82)"/>
<path d="M0 0 C-0.33 2.31 -0.66 4.62 -1 7 C-1.99 7.38671875 -2.98 7.7734375 -4 8.171875 C-10.81994134 10.85566819 -17.51707243 13.56007925 -24 17 C-22.64729756 13.70407528 -21.56611671 12.43184704 -18.3125 11 C-17.60609375 10.66871094 -16.8996875 10.33742188 -16.171875 9.99609375 C-15.45515625 9.66738281 -14.7384375 9.33867188 -14 9 C-11.45797746 7.80175655 -9.35538524 6.58627986 -7 5 C-5.95489639 2.37897003 -5.95489639 2.37897003 -6 0 C-3 -1 -3 -1 0 0 Z " fill="#CF9566" transform="translate(78,65)"/>
<path d="M0 0 C0.86625 0.185625 1.7325 0.37125 2.625 0.5625 C1.75 6.3125 1.75 6.3125 0.625 8.5625 C3.595 8.5625 6.565 8.5625 9.625 8.5625 C9.625 8.8925 9.625 9.2225 9.625 9.5625 C3.355 9.5625 -2.915 9.5625 -9.375 9.5625 C-4.20576923 0.70096154 -4.20576923 0.70096154 0 0 Z " fill="#971A21" transform="translate(60.375,124.4375)"/>
<path d="M0 0 C4.29876413 0.73826601 6.10797115 2.65022005 8.78515625 5.9609375 C10.94870445 9.59235924 10.74858484 11.84875682 10 16 C7.6875 18.5625 7.6875 18.5625 5 20 C4.01 19.67 3.02 19.34 2 19 C2.99 18.34 3.98 17.68 5 17 C5.71704178 13.62392831 5.59806653 10.39082365 5 7 C2.66663334 3.99666733 2.66663334 3.99666733 0 2 C0 1.34 0 0.68 0 0 Z " fill="#ECBE6F" transform="translate(163,140)"/>
<path d="M0 0 C-2 2 -2 2 -5.0625 2.9375 C-6.031875 3.288125 -7.00125 3.63875 -8 4 C-8.33 4.99 -8.66 5.98 -9 7 C-16.425 8.485 -16.425 8.485 -24 10 C-17.40999654 3.40999654 -9.58885432 -1.08964254 0 0 Z " fill="#E3D288" transform="translate(97,106)"/>
<path d="M0 0 C2.75 -0.3125 2.75 -0.3125 6 0 C8.25 2.3125 8.25 2.3125 10 5 C10.99 6.485 10.99 6.485 12 8 C11.625 10.1875 11.625 10.1875 11 12 C9.35 12 7.7 12 6 12 C5.67 11.34 5.34 10.68 5 10 C5.99 10 6.98 10 8 10 C8 9.34 8 8.68 8 8 C6.68 8.33 5.36 8.66 4 9 C4 7.68 4 6.36 4 5 C3.34 5 2.68 5 2 5 C1.34 3.35 0.68 1.7 0 0 Z " fill="#C78D60" transform="translate(63,51)"/>
<path d="M0 0 C1 3 1 3 0.1015625 5.6640625 C-1.20900141 9.63293335 -1.44498646 13.22718793 -1.625 17.375 C-1.66367187 18.11105469 -1.70234375 18.84710938 -1.7421875 19.60546875 C-1.83557998 21.40327406 -1.9188371 23.20160108 -2 25 C-2.99 25 -3.98 25 -5 25 C-5.77962348 8.56293835 -5.77962348 8.56293835 -1 1 C-0.67 0.67 -0.34 0.34 0 0 Z " fill="#2A0B0D" transform="translate(58,155)"/>
<path d="M0 0 C1.98 0 3.96 0 6 0 C5.67 0.99 5.34 1.98 5 3 C6.32 3.33 7.64 3.66 9 4 C8.1875 5.9375 8.1875 5.9375 7 8 C6.01 8.33 5.02 8.66 4 9 C3.24572703 13.97906259 3.24572703 13.97906259 3 19 C0.9375 17.25 0.9375 17.25 -1 15 C-0.52850553 10.20647292 2.90411234 7.42523741 6 4 C2.37 3.67 -1.26 3.34 -5 3 C-5 2.34 -5 1.68 -5 1 C-2.525 1.495 -2.525 1.495 0 2 C0 1.34 0 0.68 0 0 Z " fill="#10090A" transform="translate(66,130)"/>
<path d="M0 0 C0.66 0.33 1.32 0.66 2 1 C1.21496094 1.58007812 0.42992188 2.16015625 -0.37890625 2.7578125 C-12.08450494 11.42289916 -12.08450494 11.42289916 -22 22 C-22.66 21.67 -23.32 21.34 -24 21 C-20.33371558 15.28490958 -16.1817726 11.26642013 -10.875 7.125 C-10.2651123 6.64893311 -9.65522461 6.17286621 -9.02685547 5.68237305 C-3.02378966 1.10082665 -3.02378966 1.10082665 0 0 Z " fill="#220809" transform="translate(57,139)"/>
<path d="M0 0 C2.88832638 1.37791717 5.55516857 2.92860344 8 5 C8.33 5.99 8.66 6.98 9 8 C3.6701519 8.49579982 2.04563663 7.27503918 -2 4 C-4.6540121 3.09713981 -7.24320198 2.56070468 -10 2 C-6.54587982 -0.12561242 -4.02216856 -0.54144577 0 0 Z " fill="#110405" transform="translate(133,172)"/>
<path d="M0 0 C0.33 1.32 0.66 2.64 1 4 C4.3 4 7.6 4 11 4 C7.91111478 6.05925681 7.29064073 6.2390374 3.8125 6.125 C1.9253125 6.063125 1.9253125 6.063125 0 6 C0 6.66 0 7.32 0 8 C-1.32 7.67 -2.64 7.34 -4 7 C-3.67 5.02 -3.34 3.04 -3 1 C-7.29 1 -11.58 1 -16 1 C-16 0.67 -16 0.34 -16 0 C-11.17247654 -1.24581251 -4.59543291 -2.29771645 0 0 Z " fill="#3B2721" transform="translate(66,124)"/>
<path d="M0 0 C2.475 0.99 2.475 0.99 5 2 C5 4 5 6 5 8 C1.36576791 10.32590854 -1.77088331 10.16265833 -6 10 C-6 9.67 -6 9.34 -6 9 C-3.36 8.34 -0.72 7.68 2 7 C2 6.67 2 6.34 2 6 C-3.46137814 5.90247539 -8.59255982 6.22750855 -14 7 C-11.47519307 4.47519307 -9.86176966 4.44261367 -6.375 3.875 C-5.37210938 3.70742187 -4.36921875 3.53984375 -3.3359375 3.3671875 C-2.17964844 3.18542969 -2.17964844 3.18542969 -1 3 C-0.67 2.01 -0.34 1.02 0 0 Z " fill="#0D0A09" transform="translate(136,149)"/>
<path d="M0 0 C0.33 0 0.66 0 1 0 C1.0825 1.010625 1.165 2.02125 1.25 3.0625 C1.6747438 6.28669156 2.22805948 7.34879685 4.125 10.25 C7.08177711 14.89788344 5.86318069 19.81153348 5 25 C3.4280761 22.12581279 2.56871611 19.52162394 1.9375 16.3125 C1.52286728 13.37233881 1.52286728 13.37233881 0 11 C-0.07226502 9.14712498 -0.0838122 7.29166122 -0.0625 5.4375 C-0.05347656 4.42558594 -0.04445313 3.41367187 -0.03515625 2.37109375 C-0.02355469 1.58863281 -0.01195313 0.80617187 0 0 Z " fill="#C78F68" transform="translate(18,60)"/>
<path d="M0 0 C2.31 0.33 4.62 0.66 7 1 C7 1.33 7 1.66 7 2 C3.37 2.33 -0.26 2.66 -4 3 C-1.83735988 6.98381075 0.71211176 9.88983545 4 13 C2.35 13 0.7 13 -1 13 C-1 12.34 -1 11.68 -1 11 C-1.804375 10.401875 -2.60875 9.80375 -3.4375 9.1875 C-6.29710802 6.7463712 -6.6953187 5.65617562 -7 2 C-3.98968256 1.06576355 -3.13349732 0.95550089 0 2 C0 1.34 0 0.68 0 0 Z " fill="#1C1711" transform="translate(143,140)"/>
<path d="M0 0 C0 0.99 0 1.98 0 3 C-3.56045177 4.18681726 -6.43808337 4.09689832 -10.1875 4.0625 C-11.45980469 4.05347656 -12.73210937 4.04445312 -14.04296875 4.03515625 C-15.50669922 4.01775391 -15.50669922 4.01775391 -17 4 C-11.50750005 -0.30399681 -6.76606575 -0.11467908 0 0 Z " fill="#C9905F" transform="translate(138,154)"/>
<path d="M0 0 C0.7031987 0.02361099 1.4063974 0.04722198 2.13090515 0.07154846 C4.36223947 0.14771555 6.59318475 0.23193932 8.82421875 0.31640625 C10.34308034 0.36967407 11.86196055 0.4224141 13.38085938 0.47460938 C17.09138084 0.60326615 20.80159699 0.73914682 24.51171875 0.87890625 C24.51171875 1.20890625 24.51171875 1.53890625 24.51171875 1.87890625 C19.88527761 2.02210199 15.25881274 2.16449564 10.63232422 2.30615234 C9.05907528 2.35443537 7.485833 2.40293597 5.91259766 2.45166016 C3.64878028 2.5217341 1.38493995 2.59102064 -0.87890625 2.66015625 C-1.93069061 2.69296692 -1.93069061 2.69296692 -3.00372314 2.72644043 C-6.16798991 2.82237117 -9.32201764 2.87890625 -12.48828125 2.87890625 C-12.48828125 2.21890625 -12.48828125 1.55890625 -12.48828125 0.87890625 C-8.24225981 -0.18170634 -4.36318435 -0.15644884 0 0 Z " fill="#DBC27A" transform="translate(71.48828125,118.12109375)"/>
<path d="M0 0 C3.36591866 1.44253657 5.51047079 3.33264727 8 6 C7.34 6 6.68 6 6 6 C5.67 7.32 5.34 8.64 5 10 C4.34 10 3.68 10 3 10 C2.67 9.01 2.34 8.02 2 7 C1.01 7.33 0.02 7.66 -1 8 C-0.67 5.36 -0.34 2.72 0 0 Z " fill="#846339" transform="translate(141,112)"/>
<path d="M0 0 C0.33 0.66 0.66 1.32 1 2 C2.155 2.165 3.31 2.33 4.5 2.5 C5.655 2.665 6.81 2.83 8 3 C8.33 3.66 8.66 4.32 9 5 C8.195625 5.61875 7.39125 6.2375 6.5625 6.875 C3.96125481 8.74164041 3.96125481 8.74164041 3 11 C2.34 11 1.68 11 1 11 C0.67 7.37 0.34 3.74 0 0 Z " fill="#D8B37D" transform="translate(24,89)"/>
<path d="M0 0 C1.38294718 0.01329757 2.76582404 0.03715018 4.1484375 0.0703125 C4.85484375 0.07933594 5.56125 0.08835938 6.2890625 0.09765625 C8.03399848 0.12123647 9.77876045 0.15710789 11.5234375 0.1953125 C10.5334375 1.6803125 10.5334375 1.6803125 9.5234375 3.1953125 C7.31640625 3.5234375 7.31640625 3.5234375 4.7109375 3.4453125 C3.37482422 3.40664062 3.37482422 3.40664062 2.01171875 3.3671875 C-0.55495431 3.18989768 -2.98814065 2.85889166 -5.4765625 2.1953125 C-3.4765625 0.1953125 -3.4765625 0.1953125 0 0 Z " fill="#C29952" transform="translate(122.4765625,159.8046875)"/>
<path d="M0 0 C1.27230469 0.50660156 1.27230469 0.50660156 2.5703125 1.0234375 C11.07585767 4.25741402 18.90126681 6.07353325 28 7 C28 7.33 28 7.66 28 8 C17.52355211 8.39368698 9.41528284 6.58522048 0 2 C0 1.34 0 0.68 0 0 Z " fill="#360E10" transform="translate(79,165)"/>
<path d="M0 0 C-0.33 1.32 -0.66 2.64 -1 4 C-5.455 4.495 -5.455 4.495 -10 5 C-9.67 3.68 -9.34 2.36 -9 1 C-5.3931275 -0.64661571 -3.8148779 -1.27162597 0 0 Z " fill="#EDB96C" transform="translate(98,108)"/>
<path d="M0 0 C0.66 0 1.32 0 2 0 C2 1.32 2 2.64 2 4 C3.32 3.67 4.64 3.34 6 3 C6 3.66 6 4.32 6 5 C5.01 5.495 5.01 5.495 4 6 C5.98 6.66 7.96 7.32 10 8 C10 8.33 10 8.66 10 9 C6.78333296 9.21931821 4.56637697 9.26828383 1.625 7.875 C0 6 0 6 -0.25 2.8125 C-0.1675 1.884375 -0.085 0.95625 0 0 Z " fill="#3C2D23" transform="translate(65,56)"/>
<path d="M0 0 C1.98270912 0.95098266 3.96108379 1.91100703 5.9375 2.875 C7.03964844 3.40867187 8.14179688 3.94234375 9.27734375 4.4921875 C12 6 12 6 13 8 C12.35933594 7.80664062 11.71867188 7.61328125 11.05859375 7.4140625 C6.04889015 5.9059252 1.03460143 4.42282214 -4 3 C-2.68 2.67 -1.36 2.34 0 2 C0 1.34 0 0.68 0 0 Z " fill="#AE1414" transform="translate(134,120)"/>
<path d="M0 0 C1.3293457 0.00483398 1.3293457 0.00483398 2.68554688 0.00976562 C4.05356445 0.02233398 4.05356445 0.02233398 5.44921875 0.03515625 C6.38056641 0.03966797 7.31191406 0.04417969 8.27148438 0.04882812 C10.55996248 0.06056391 12.84830683 0.07698262 15.13671875 0.09765625 C15.13671875 0.42765625 15.13671875 0.75765625 15.13671875 1.09765625 C9.19671875 1.42765625 3.25671875 1.75765625 -2.86328125 2.09765625 C-2.20328125 2.75765625 -1.54328125 3.41765625 -0.86328125 4.09765625 C-4.00953118 4.35984374 -5.48165142 4.34519992 -8.17578125 2.59765625 C-8.73265625 2.10265625 -9.28953125 1.60765625 -9.86328125 1.09765625 C-6.51236354 0.34402573 -3.43218313 -0.02214312 0 0 Z " fill="#2A0E10" transform="translate(101.86328125,100.90234375)"/>
<path d="M0 0 C2 2 2 2 2.125 5.625 C2.08375 6.73875 2.0425 7.8525 2 9 C0.02 7.68 -1.96 6.36 -4 5 C-2.25 1.125 -2.25 1.125 0 0 Z " fill="#AB8049" transform="translate(150,120)"/>
<path d="M0 0 C3.7726764 0.53895377 5.68212991 1.99535358 8 5 C7.60546875 7.13671875 7.60546875 7.13671875 7 9 C5.82737096 7.88121617 4.66204862 6.75476949 3.5 5.625 C2.8503125 4.99851563 2.200625 4.37203125 1.53125 3.7265625 C0 2 0 2 0 0 Z " fill="#F4C572" transform="translate(163,140)"/>
<path d="M0 0 C0.66 0 1.32 0 2 0 C1.67 0.99 1.34 1.98 1 3 C0.85222064 4.69867188 0.75252934 6.40177489 0.68359375 8.10546875 C0.62075195 9.57983398 0.62075195 9.57983398 0.55664062 11.08398438 C0.51732422 12.10814453 0.47800781 13.13230469 0.4375 14.1875 C0.39431641 15.22326172 0.35113281 16.25902344 0.30664062 17.32617188 C0.20055634 19.8839819 0.09849854 22.44188845 0 25 C-0.33 25 -0.66 25 -1 25 C-1.02886984 21.02084841 -1.04675406 17.04172347 -1.0625 13.0625 C-1.07087891 11.92619141 -1.07925781 10.78988281 -1.08789062 9.61914062 C-1.09111328 8.53955078 -1.09433594 7.45996094 -1.09765625 6.34765625 C-1.10289307 5.34742432 -1.10812988 4.34719238 -1.11352539 3.31665039 C-1 1 -1 1 0 0 Z " fill="#9E3239" transform="translate(60,82)"/>
<path d="M0 0 C0.66 0.99 1.32 1.98 2 3 C1.01 4.485 1.01 4.485 0 6 C1.98 6.66 3.96 7.32 6 8 C5.34 8.66 4.68 9.32 4 10 C1.69 9.01 -0.62 8.02 -3 7 C-2.38722388 4.03824877 -1.74627478 2.61941217 0 0 Z " fill="#2B100F" transform="translate(64,143)"/>
<path d="M0 0 C5.70629354 0.42797202 9.41078616 2.84345952 14 6 C11 7 11 7 8.30078125 5.78515625 C7.31464844 5.21667969 6.32851562 4.64820313 5.3125 4.0625 C4.31863281 3.49660156 3.32476562 2.93070313 2.30078125 2.34765625 C1.54152344 1.90292969 0.78226562 1.45820313 0 1 C0 0.67 0 0.34 0 0 Z " fill="#13100E" transform="translate(119,128)"/>
<path d="M0 0 C-0.66 1.65 -1.32 3.3 -2 5 C-4.64 4.67 -7.28 4.34 -10 4 C-9.67 3.34 -9.34 2.68 -9 2 C-7.02 2.495 -7.02 2.495 -5 3 C-5 2.34 -5 1.68 -5 1 C-2 0 -2 0 0 0 Z " fill="#282116" transform="translate(112,158)"/>
<path d="M0 0 C1.65 0.33 3.3 0.66 5 1 C5 1.99 5 2.98 5 4 C1.36576791 6.32590854 -1.77088331 6.16265833 -6 6 C-6 5.67 -6 5.34 -6 5 C-3.36 4.34 -0.72 3.68 2 3 C1.34 2.01 0.68 1.02 0 0 Z " fill="#271C14" transform="translate(136,153)"/>
<path d="M0 0 C-0.33 2.31 -0.66 4.62 -1 7 C-3.52588702 4.63707344 -4.88820837 3.33537489 -6 0 C-3 -1 -3 -1 0 0 Z " fill="#BF8A61" transform="translate(78,65)"/>
<path d="M0 0 C0.33 0.99 0.66 1.98 1 3 C-0.40445835 5.2636564 -2.1967913 7.0208685 -4 9 C-4.66 8.67 -5.32 8.34 -6 8 C-4.02 5.36 -2.04 2.72 0 0 Z " fill="#370F11" transform="translate(39,152)"/>
<path d="M0 0 C1.44096586 0.42594588 2.87768712 0.86626633 4.3125 1.3125 C5.11300781 1.55613281 5.91351563 1.79976563 6.73828125 2.05078125 C9.09964573 3.04182023 10.33879993 4.08074943 12 6 C8.55639368 6 7.25204608 5.20408468 4.3125 3.5 C3.50425781 3.0359375 2.69601563 2.571875 1.86328125 2.09375 C1.24839844 1.7328125 0.63351563 1.371875 0 1 C0 0.67 0 0.34 0 0 Z " fill="#2E100C" transform="translate(134,119)"/>
<path d="M0 0 C4.55015893 1.51671964 6.50057264 5.16891053 9 9 C5.18063472 7.44396229 2.73955562 5.04395069 0 2 C0 1.34 0 0.68 0 0 Z " fill="#210708" transform="translate(71,161)"/>
<path d="M0 0 C0.99 0.33 1.98 0.66 3 1 C2.67 2.32 2.34 3.64 2 5 C0.35 5 -1.3 5 -3 5 C-3.33 4.34 -3.66 3.68 -4 3 C-3.01 2.67 -2.02 2.34 -1 2 C-0.67 1.34 -0.34 0.68 0 0 Z " fill="#DC9861" transform="translate(72,58)"/>
<path d="M0 0 C0.66 0 1.32 0 2 0 C1.25 4.75 1.25 4.75 -1 7 C-1.99 6.67 -2.98 6.34 -4 6 C-2.7260411 3.96166576 -1.38938077 1.96147874 0 0 Z " fill="#39281A" transform="translate(167,150)"/>
<path d="M0 0 C-1 2 -1 2 -2.84765625 2.6328125 C-3.57855469 2.79523438 -4.30945313 2.95765625 -5.0625 3.125 C-6.16271484 3.37636719 -6.16271484 3.37636719 -7.28515625 3.6328125 C-7.85105469 3.75398438 -8.41695313 3.87515625 -9 4 C-8.67 3.01 -8.34 2.02 -8 1 C-5.29120665 -0.35439668 -2.99066732 -0.06501451 0 0 Z " fill="#050404" transform="translate(97,103)"/>
<path d="M0 0 C1.32 0 2.64 0 4 0 C4 0.99 4 1.98 4 3 C1.03 3 -1.94 3 -5 3 C-5 2.34 -5 1.68 -5 1 C-2.525 1.495 -2.525 1.495 0 2 C0 1.34 0 0.68 0 0 Z " fill="#070403" transform="translate(66,130)"/>
<path d="M0 0 C0 0.99 0 1.98 0 3 C-2.97 2.505 -2.97 2.505 -6 2 C-6 1.34 -6 0.68 -6 0 C-3.50907189 -1.24546405 -2.58919267 -0.7767578 0 0 Z " fill="#E0C993" transform="translate(49,91)"/>
<path d="M0 0 C3.68754757 0.49831724 5.60490662 1.10067643 8 4 C5.69 3.67 3.38 3.34 1 3 C0.67 2.01 0.34 1.02 0 0 Z " fill="#E8D4A4" transform="translate(76,158)"/>
<path d="M0 0 C2.97 0.495 2.97 0.495 6 1 C6.33 1.99 6.66 2.98 7 4 C2.25 3.125 2.25 3.125 0 2 C0 1.34 0 0.68 0 0 Z " fill="#E9C36C" transform="translate(145,130)"/>
<path d="M0 0 C0.33 1.32 0.66 2.64 1 4 C2.65 4 4.3 4 6 4 C3.38058783 5.74627478 1.96175123 6.38722388 -1 7 C-0.67 4.69 -0.34 2.38 0 0 Z " fill="#EDC196" transform="translate(29,124)"/>
<path d="M0 0 C0.33 0 0.66 0 1 0 C1.144375 1.11375 1.28875 2.2275 1.4375 3.375 C1.78372035 6.82142047 1.78372035 6.82142047 3 9 C2.34 9.99 1.68 10.98 1 12 C0 11 0 11 -0.09765625 8.49609375 C-0.08605469 7.48675781 -0.07445313 6.47742188 -0.0625 5.4375 C-0.05347656 4.42558594 -0.04445313 3.41367187 -0.03515625 2.37109375 C-0.02355469 1.58863281 -0.01195313 0.80617187 0 0 Z " fill="#C39A76" transform="translate(18,60)"/>
</svg>
